# xmcd CD database file
#
# Track frame offsets:
#	150
#	10601
#	31079
#	49106
#	70026
#	94465
#	106912
#	129197
#	147991
#	168507
#	182335
#	197055
#	216958
#	230261
#	246491
#	268114
#	288025
#
# Disc length: 4118 seconds
#
# Revision: 0
# Processed by: cddbd v1.5PL3 Copyright (c) Steve Scherf et al.
# Submitted via: CDex 1.50beta10
#
DISCID=e9101411
DTITLE=Paul Oscher - Alone With The Blues
DYEAR=2004
DGENRE=Blues
TTITLE0=Walkin'
TTITLE1=That's Alright
TTITLE2=My Sweet Suzanne
TTITLE3=Standing At The Crossroads
TTITLE4=Alone With The Blues
TTITLE5=Glory, Glory
TTITLE6=Blues And Trouble
TTITLE7=Work That Stuff
TTITLE8=Juke Joint
TTITLE9=Your Still My Baby
TTITLE10=Anna Lee
TTITLE11=Louis Collins
TTITLE12=Early One Morning
TTITLE13=Old Ship Of Zion
TTITLE14=Blues Before Sunrise
TTITLE15=Christinas Blues
TTITLE16=Giving Thanks
EXTD=YEAR: 2004
EXTT0=
EXTT1=
EXTT2=
EXTT3=
EXTT4=
EXTT5=
EXTT6=
EXTT7=
EXTT8=
EXTT9=
EXTT10=
EXTT11=
EXTT12=
EXTT13=
EXTT14=
EXTT15=
EXTT16=
PLAYORDER=
